<svg width="52" height="80" viewBox="0 0 52 80" fill="none" xmlns="http://www.w3.org/2000/svg">
<path fill-rule="evenodd" clip-rule="evenodd" d="M34.5921 7.80352C33.1613 3.90176 31.4493 0 26.0024 0C20.5568 0 18.7828 3.96433 17.4033 7.80352C17.045 8.80117 13.3539 18.9083 9.70163 28.9091C6.08004 38.8259 2.4966 48.6383 2.23859 49.361C2.08692 49.7648 2.28156 50.247 2.70371 50.4101C3.13977 50.5788 10.5249 53.4429 10.9559 53.6116C11.385 53.7803 11.828 53.5212 11.9677 53.1351C12.0263 52.9752 12.5889 51.4297 13.2524 49.6067C14.1908 47.0283 15.3314 43.8946 15.5339 43.3415H36.4956C36.64 43.738 37.2612 45.4576 37.9445 47.3489C38.8881 49.9611 39.9502 52.9009 40.0378 53.1351C40.1875 53.5396 40.6451 53.7626 41.0514 53.6116C41.2468 53.5389 43.0525 52.8373 44.9284 52.1085C46.9485 51.3236 49.0501 50.5071 49.31 50.4101C49.8105 50.2173 49.8882 49.6865 49.7694 49.361C49.3479 48.2001 35.2001 9.45675 34.5921 7.80352ZM0.32373 70.1363C0.32373 69.6844 0.678266 69.3166 1.11748 69.3166H50.8886C51.3247 69.3166 51.6761 69.6838 51.6761 70.1363V79.186C51.6761 79.6385 51.3247 80 50.8886 80H1.11748C0.678898 80 0.32373 79.6385 0.32373 79.186V70.1363ZM18.8719 33.9322L25.9613 12.6501H25.962H26.0486L33.162 33.9322H18.8719Z" fill="#191919"/>
</svg>
