<svg width="35" height="35" viewBox="0 0 35 35" fill="none" xmlns="http://www.w3.org/2000/svg">
<rect x="0.5" y="0.5" width="34" height="34" rx="7.5" stroke="#FFFFFC"/>
<path fill-rule="evenodd" clip-rule="evenodd" d="M24.9844 7.16264C25.5311 7.43862 26.1765 7.83824 26.6896 8.37806C27.2038 8.91898 27.5836 9.59679 27.8439 10.1719C28.1723 10.8939 27.9593 11.7263 27.4231 12.2915L19.8532 20.2541C19.5279 20.5963 19.1313 20.8513 18.6937 20.9992L14.2634 22.4928C14.1256 22.5393 13.9783 22.545 13.8377 22.5091C13.6971 22.4732 13.5685 22.3973 13.4663 22.2896C13.364 22.1819 13.2919 22.0466 13.258 21.8986C13.2241 21.7506 13.2296 21.5956 13.2739 21.4507L14.6937 16.7911C14.8338 16.331 15.0763 15.9128 15.4009 15.5712L22.9708 7.60752C23.508 7.04231 24.2992 6.81932 24.9855 7.16374L24.9844 7.16264ZM25.2058 9.94011C24.9466 9.68251 24.6541 9.46473 24.337 9.29321L16.998 17.0141C16.9234 17.0924 16.8604 17.1821 16.8112 17.2801L15.2404 20.423L18.2268 18.7715C18.3212 18.7196 18.4062 18.6534 18.4807 18.575L25.8197 10.8542C25.6566 10.5205 25.4507 10.2128 25.2058 9.94011ZM10.0976 10.927C10.0974 10.786 10.1485 10.6503 10.2404 10.5476C10.3323 10.445 10.458 10.3832 10.5918 10.3751L16.3946 10.3806C16.6729 10.3806 16.9398 10.2643 17.1366 10.0572C17.3334 9.85022 17.444 9.56943 17.444 9.27665C17.444 8.98388 17.3334 8.70309 17.1366 8.49606C16.9398 8.28904 16.6729 8.17273 16.3946 8.17273L10.6233 8.16721C9.92757 8.16721 9.26032 8.45798 8.76835 8.97554C8.27638 9.4931 8 10.1951 8 10.927V24.8111C8 25.65 8.08604 26.1192 8.33474 26.6071C8.56979 27.0697 8.92026 27.4395 9.35993 27.6868C9.82373 27.9473 10.2686 28.0378 11.0672 28.0378H23.8207C24.6182 28.0378 25.0642 27.9473 25.528 27.6868C25.9687 27.4395 26.3192 27.0697 26.5542 26.6071C26.8019 26.1192 26.8879 25.6511 26.8879 24.8111V19.2064C26.8879 18.9137 26.7774 18.6329 26.5806 18.4259C26.3838 18.2188 26.1169 18.1025 25.8386 18.1025C25.5603 18.1025 25.2934 18.2188 25.0966 18.4259C24.8998 18.6329 24.7893 18.9137 24.7893 19.2064V24.8111C24.7893 25.3178 24.7672 25.4414 24.7032 25.5661C24.6668 25.6406 24.6092 25.7011 24.5385 25.7395C24.4199 25.8057 24.3024 25.83 23.8207 25.83H11.0672C10.5855 25.83 10.4691 25.8057 10.3494 25.7395C10.2787 25.7012 10.2211 25.6406 10.1847 25.5661C10.1217 25.4414 10.0987 25.3178 10.0987 24.8111L10.0976 10.927Z" fill="#FFFFFC"/>
</svg>
