<svg width="7" height="27" viewBox="0 0 7 27" fill="none" xmlns="http://www.w3.org/2000/svg">
<path d="M7 3.11538C7 4.83596 5.433 6.23077 3.5 6.23077C1.567 6.23077 0 4.83596 0 3.11538C0 1.39481 1.567 0 3.5 0C5.433 0 7 1.39481 7 3.11538Z" fill="#FFFFFC"/>
<path d="M7 13.5C7 15.2206 5.433 16.6154 3.5 16.6154C1.567 16.6154 0 15.2206 0 13.5C0 11.7794 1.567 10.3846 3.5 10.3846C5.433 10.3846 7 11.7794 7 13.5Z" fill="#FFFFFC"/>
<path d="M7 23.8846C7 25.6052 5.433 27 3.5 27C1.567 27 0 25.6052 0 23.8846C0 22.164 1.567 20.7692 3.5 20.7692C5.433 20.7692 7 22.164 7 23.8846Z" fill="#FFFFFC"/>
</svg>
