<svg width="228" height="65" viewBox="0 0 228 65" fill="none" xmlns="http://www.w3.org/2000/svg">
<path d="M65.3571 2.65306C65.3571 1.18782 64.1719 0 62.7099 0H3.14723C1.68521 0 0.5 1.18782 0.5 2.65306V24.0737C0.5 26.2738 3.01828 27.5179 4.75946 26.178L26.0219 9.81549C27.7631 8.47557 30.2813 9.71965 30.2813 11.9198V43.2302C30.2813 45.2877 32.5169 46.5622 34.2815 45.5106L50.461 35.8692C51.8956 35.0143 53.752 35.6871 54.3092 37.2639L63.9386 64.5125C64.0418 64.8047 64.3176 65 64.6269 65C65.0302 65 65.3571 64.6723 65.3571 64.2682V2.65306Z" fill="#FFFFFC"/>
<path d="M53.3441 65C55.1717 65 56.4496 63.1878 55.8394 61.4612L50.7622 47.0941C50.205 45.5174 48.3486 44.8445 46.914 45.6995L27.6634 57.1709C25.8988 58.2225 23.6633 56.948 23.6633 54.8905V25.3751C23.6633 23.175 21.145 21.9309 19.4038 23.2708L1.535 37.0218C0.882484 37.5239 0.5 38.3015 0.5 39.126V62.3469C0.5 63.8122 1.6852 65 3.14723 65H53.3441Z" fill="#FFFFFC"/>
<path d="M106.995 0.548522H122.059V64.4515H112.322V21.9409L103.688 64.4515H96.2475L87.6131 21.9409V64.4515H77.9683V0.548522H92.9407L100.014 45.1617L106.995 0.548522Z" fill="#FFFFFC"/>
<path d="M160.618 0.548522L147.483 42.2363V64.4515H137.746V42.2363L124.611 0.548522H134.807L142.615 31.6315L150.422 0.548522H160.618Z" fill="#FFFFFC"/>
<path d="M176.781 7.22222C173.198 7.22222 171.177 9.23347 171.177 12.7989C171.177 21.5752 175.219 24.9578 184.313 34.0084C193.406 43.0591 192.304 51.3783 192.304 51.3783C192.304 60.1547 187.436 65 178.618 65H175.311C166.585 65 161.716 60.1547 161.716 51.3783V45.3446H170.443V51.3783C170.443 55.1266 172.555 57.2293 176.321 57.2293C180.087 57.2293 182.2 55.1266 182.2 51.3783C182.2 51.3783 182.659 45.1617 177.424 40.0422C172.28 34.9226 161.716 27.4262 161.716 12.8903C161.716 4.57103 166.309 0 174.668 0H177.699C186.058 0 190.651 4.57103 190.651 12.8903V19.8383H182.476V12.7989C182.476 9.23347 180.455 7.22222 176.781 7.22222Z" fill="#FFFFFC"/>
<path d="M211.976 0C221.989 0 227.5 5.48523 227.5 15.4501V49.5499C227.5 59.5148 221.989 65 211.976 65C201.964 65 196.453 59.5148 196.453 49.5499V15.4501C196.453 5.48523 201.964 0 211.976 0ZM217.763 51.0127V13.5302C217.763 9.782 215.651 7.77075 211.976 7.77075C208.302 7.77075 206.189 9.782 206.189 13.5302V51.0127C206.189 54.6695 208.302 56.7722 211.976 56.7722C215.651 56.7722 217.763 54.6695 217.763 51.0127Z" fill="#FFFFFC"/>
</svg>
