<svg width="345" height="99" viewBox="0 0 345 99" fill="none" xmlns="http://www.w3.org/2000/svg">
<path d="M98.5714 4.04082C98.5714 1.80914 96.7701 0 94.5481 0H4.02332C1.8013 0 0 1.80914 0 4.04082V36.6661C0 40.017 3.82734 41.9118 6.47363 39.871L38.7888 14.9498C41.4351 12.9089 45.2624 14.8038 45.2624 18.1547V65.843C45.2624 68.9767 48.6601 70.9177 51.3419 69.3162L75.9318 54.6316C78.1122 53.3295 80.9337 54.3542 81.7806 56.7558L96.4154 98.2575C96.5724 98.7025 96.9915 99 97.4616 99C98.0745 99 98.5714 98.5009 98.5714 97.8853V4.04082Z" fill="#E74833"/>
<path d="M80.3136 99C83.0914 99 85.0335 96.2399 84.1061 93.6102L76.3898 71.728C75.5429 69.3264 72.7214 68.3017 70.541 69.6038L41.2836 87.0757C38.6017 88.6773 35.2041 86.7362 35.2041 83.6025V38.6483C35.2041 35.2973 31.3768 33.4025 28.7305 35.4433L1.57302 56.387C0.581309 57.1518 0 58.3362 0 59.592V94.9592C0 97.1909 1.8013 99 4.02332 99H80.3136Z" fill="#E74833"/>
<path d="M161.853 0.835441H184.748V98.1646H169.95V33.4177L156.827 98.1646H145.519L132.397 33.4177V98.1646H117.738V0.835441H140.494L151.243 68.7848L161.853 0.835441Z" fill="#E74833"/>
<path d="M243.352 0.835441L223.388 64.3291V98.1646H208.59V64.3291L188.627 0.835441H204.123L215.989 48.1772L227.856 0.835441H243.352Z" fill="#E74833"/>
<path d="M267.915 11C262.471 11 259.4 14.0633 259.4 19.4937C259.4 32.8608 265.542 38.0127 279.363 51.7975C293.184 65.5823 291.509 78.2532 291.509 78.2532C291.509 91.6203 284.11 99 270.708 99H265.682C252.419 99 245.02 91.6203 245.02 78.2532V69.0633H258.283V78.2532C258.283 83.962 261.494 87.1646 267.217 87.1646C272.941 87.1646 276.152 83.962 276.152 78.2532C276.152 78.2532 276.85 68.7848 268.893 60.9873C261.075 53.1899 245.02 41.7722 245.02 19.6329C245.02 6.96203 252.001 0 264.705 0H269.311C282.016 0 288.996 6.96203 288.996 19.6329V30.2152H276.571V19.4937C276.571 14.0633 273.5 11 267.915 11Z" fill="#E74833"/>
<path d="M321.407 0C336.624 0 345 8.35443 345 23.5316V75.4684C345 90.6456 336.624 99 321.407 99C306.19 99 297.814 90.6456 297.814 75.4684V23.5316C297.814 8.35443 306.19 0 321.407 0ZM330.202 77.6962V20.6076C330.202 14.8987 326.991 11.8354 321.407 11.8354C315.823 11.8354 312.612 14.8987 312.612 20.6076V77.6962C312.612 83.2658 315.823 86.4684 321.407 86.4684C326.991 86.4684 330.202 83.2658 330.202 77.6962Z" fill="#E74833"/>
</svg>
