<svg width="118" height="34" viewBox="0 0 118 34" fill="none" xmlns="http://www.w3.org/2000/svg">
<path d="M84.9092 14.9902V33.1612H95.0041V22.3932H106.445C111.257 22.3596 115.345 19.2806 116.893 14.9902H84.9092Z" fill="#191919"/>
<path d="M83.5625 0.0166016C84.1514 7.43639 91.1842 13.3083 99.7649 13.3083C99.7986 13.3083 117.313 13.3083 117.313 13.3083C117.448 12.6353 117.515 11.9287 117.515 11.2052C117.515 5.04726 112.552 0.0670763 106.411 0.0166016H83.5625Z" fill="#191919"/>
<path d="M68.6221 13.1232C68.7398 12.9213 68.9249 12.8035 69.1605 12.8035C69.497 12.8035 69.7493 13.0727 69.7662 13.3924V32.9935H79.8611V0.0166016H69.7662C68.4875 0.0670763 67.0405 0.992447 66.5021 2.15337L58.4766 19.3821C58.4598 19.4494 58.4262 19.5167 58.3925 19.584C58.2747 19.7522 58.0728 19.87 57.8373 19.87C57.4671 19.87 57.1643 19.5672 57.1643 19.197V0.0166016H47.0693V32.9935H57.1643C58.4262 32.9262 59.8395 32.0008 60.3778 30.8567L68.6221 13.1737C68.6052 13.1569 68.6221 13.14 68.6221 13.1232Z" fill="#191919"/>
<path d="M30.9343 13.6955L25.0287 32.9937H17.7604L11.8717 13.6787C11.8212 13.3758 11.552 13.1403 11.2155 13.1403C10.8453 13.1403 10.5593 13.4431 10.5593 13.7964V32.9769H0.464355V0H9.12919H11.7034C13.5541 0 15.5058 1.44694 16.0442 3.21356L20.9571 19.2814C21.2095 20.089 21.5965 20.0721 21.8488 19.2814L26.7617 3.21356C27.3001 1.43012 29.2518 0 31.1025 0H33.6768H42.3416V32.9769H32.2466V13.7964C32.2466 13.7964 32.2466 13.7964 32.2466 13.7796C32.2466 13.4095 31.9438 13.1234 31.5905 13.1234C31.254 13.1403 30.9848 13.3758 30.9343 13.6955Z" fill="#191919"/>
</svg>
