<svg width="49" height="17" viewBox="0 0 49 17" fill="none" xmlns="http://www.w3.org/2000/svg">
<path d="M9.83903 0.143459H14.6127V16.8565H11.5273V5.7384L8.79115 16.8565H6.43343L3.6973 5.7384V16.8565H0.640991V0.143459H5.38554L7.62685 11.8115L9.83903 0.143459Z" fill="white"/>
<path d="M26.8316 0.143459L22.6692 11.0464V16.8565H19.5837V11.0464L15.4213 0.143459H18.6523L21.1264 8.27286L23.6006 0.143459H26.8316Z" fill="white"/>
<path d="M31.9531 1.88889C30.8179 1.88889 30.1776 2.41491 30.1776 3.3474C30.1776 5.64276 31.4583 6.52743 34.34 8.89452C37.2216 11.2616 36.8723 13.4374 36.8723 13.4374C36.8723 15.7328 35.3296 17 32.5353 17H31.4874C28.7222 17 27.1795 15.7328 27.1795 13.4374V11.8594H29.9447V13.4374C29.9447 14.4177 30.6142 14.9677 31.8076 14.9677C33.001 14.9677 33.6705 14.4177 33.6705 13.4374C33.6705 13.4374 33.816 11.8115 32.1569 10.4726C30.5269 9.13362 27.1795 7.173 27.1795 3.37131C27.1795 1.1955 28.6349 0 31.2837 0H32.2442C34.893 0 36.3484 1.1955 36.3484 3.37131V5.18847H33.7578V3.3474C33.7578 2.41491 33.1175 1.88889 31.9531 1.88889Z" fill="white"/>
<path d="M43.1062 0C46.2789 0 48.0254 1.4346 48.0254 4.04079V12.9592C48.0254 15.5654 46.2789 17 43.1062 17C39.9334 17 38.187 15.5654 38.187 12.9592V4.04079C38.187 1.4346 39.9334 0 43.1062 0ZM44.9399 13.3418V3.53868C44.9399 2.55837 44.2705 2.03235 43.1062 2.03235C41.9419 2.03235 41.2724 2.55837 41.2724 3.53868V13.3418C41.2724 14.2982 41.9419 14.8481 43.1062 14.8481C44.2705 14.8481 44.9399 14.2982 44.9399 13.3418Z" fill="white"/>
</svg>
