<svg width="15" height="22" viewBox="0 0 15 22" fill="none" xmlns="http://www.w3.org/2000/svg">
<path d="M6.22139 16.0798C4.30219 15.9987 2.45477 15.4712 0.90713 14.5625L0.34946 14.1962C0.133108 13.9762 0.0108754 13.7067 0.000692189 13.4272C-0.00949101 13.1477 0.092911 12.8729 0.292878 12.6432C0.492844 12.4135 0.77985 12.241 1.11179 12.1509C1.44373 12.0608 1.80314 12.058 2.13728 12.1427L2.58014 12.352C3.98669 13.1169 5.64644 13.5315 7.34888 13.5432C9.05131 13.5548 10.7197 13.163 12.1425 12.4174C12.4115 12.2405 12.7246 12.1112 13.061 12.0381C13.3704 11.9738 13.6975 11.9913 13.9933 12.088C14.2891 12.1847 14.5375 12.3554 14.7013 12.5743C14.9131 12.7889 15.0185 13.0582 14.9973 13.3308C14.9762 13.6034 14.8299 13.8603 14.5864 14.0524C13.8066 14.6889 12.86 15.1802 11.8145 15.4912C10.7911 15.7783 9.72838 15.9671 8.64889 16.0536L8.99334 16.3414C10.4531 17.5186 11.9293 18.6827 13.3727 19.8599C13.593 20.0226 13.7433 20.2367 13.8022 20.4715C13.8611 20.7064 13.8256 20.9501 13.7007 21.1679C13.5601 21.4182 13.3288 21.6292 13.0364 21.7738C12.7441 21.9183 12.4042 21.9897 12.0605 21.9788C11.6668 21.9485 11.3027 21.7987 11.0436 21.5603C9.92826 20.6708 8.81292 19.8076 7.76319 18.9443C7.45155 18.6827 7.30393 18.735 7.02509 18.9443C5.90975 19.8599 4.77801 20.7493 3.64627 21.6388C3.44313 21.8158 3.1736 21.9357 2.87798 21.9805C2.58235 22.0253 2.27648 21.9926 2.00607 21.8873C1.6979 21.7704 1.43913 21.5845 1.26143 21.3522C1.08373 21.1199 0.994804 20.8513 1.00554 20.5793C1.06886 20.2732 1.26651 19.9951 1.56321 19.7945L5.82774 16.3544C5.99176 16.289 6.07377 16.1975 6.22139 16.0798Z" fill="#FFFFFC"/>
<path d="M7.46711 11.9999C6.20993 11.9938 4.98301 11.6347 3.942 10.9683C2.90098 10.3019 2.09277 9.35817 1.61989 8.25684C1.14701 7.15551 1.03077 5.9462 1.28591 4.78232C1.54106 3.61843 2.15609 2.55242 3.05299 1.71951C3.94989 0.886594 5.08825 0.32431 6.32365 0.103983C7.55906 -0.116344 8.83584 0.0152145 9.99205 0.48197C11.1483 0.948725 12.1318 1.72964 12.8179 2.72567C13.5039 3.72169 13.8617 4.88793 13.8456 6.07645C13.8243 7.65976 13.1418 9.17091 11.947 10.2805C10.7522 11.3901 9.14188 12.0081 7.46711 11.9999ZM10.6078 5.98461C10.6046 5.40535 10.4204 4.83991 10.0783 4.35933C9.73621 3.87875 9.25155 3.50446 8.68518 3.2835C8.11882 3.06254 7.49601 3.00476 6.89502 3.11742C6.29403 3.23007 5.74166 3.50814 5.3073 3.91669C4.87295 4.32524 4.57598 4.84604 4.45372 5.41366C4.33146 5.98128 4.38936 6.5704 4.62014 7.10701C4.85091 7.64362 5.24428 8.10377 5.75081 8.42967C6.25734 8.75556 6.85445 8.93265 7.46711 8.9387C7.87652 8.94078 8.28226 8.86557 8.66054 8.71747C9.03881 8.56937 9.382 8.35136 9.67 8.07622C9.95799 7.80108 10.185 7.47435 10.3377 7.11519C10.4904 6.75603 10.5657 6.37166 10.5592 5.98461H10.6078Z" fill="#FFFFFC"/>
</svg>
