<svg width="33" height="31" viewBox="0 0 33 31" fill="none" xmlns="http://www.w3.org/2000/svg">
<path d="M15.1366 1.67476C15.5685 0.720104 15.7846 0.242773 16.0854 0.0957822C16.3466 -0.0319274 16.6534 -0.0319274 16.9146 0.0957822C17.2154 0.242773 17.4315 0.720104 17.8635 1.67476L21.3043 9.27876C21.4322 9.56098 21.496 9.70209 21.5949 9.81015C21.6822 9.90577 21.7891 9.98225 21.9084 10.0346C22.0433 10.0938 22.1993 10.11 22.5113 10.1424L30.9162 11.0163C31.9714 11.126 32.4989 11.1808 32.7338 11.4172C32.9378 11.6225 33.0326 11.9099 32.99 12.1942C32.9411 12.5214 32.547 12.8711 31.7588 13.5709L25.4804 19.1443C25.2475 19.3511 25.1309 19.4546 25.0572 19.5805C24.9919 19.6921 24.951 19.8158 24.9374 19.9437C24.9219 20.0884 24.9544 20.2394 25.0195 20.5418L26.7731 28.6858C26.9933 29.7083 27.1034 30.2195 26.9478 30.5125C26.8125 30.7672 26.5643 30.9448 26.2768 30.9928C25.9458 31.0479 25.4862 30.7869 24.567 30.2647L17.2458 26.1051C16.9742 25.9507 16.8383 25.8737 16.6939 25.8434C16.5661 25.8167 16.434 25.8167 16.3061 25.8434C16.1617 25.8737 16.0259 25.9507 15.7542 26.1051L8.43307 30.2647C7.51393 30.7869 7.05436 31.0479 6.72332 30.9928C6.43575 30.9448 6.1875 30.7672 6.05233 30.5125C5.89673 30.2195 6.0068 29.7083 6.22697 28.6858L7.98054 20.5418C8.04562 20.2394 8.07817 20.0884 8.06272 19.9437C8.04904 19.8158 8.00823 19.6921 7.94292 19.5805C7.86912 19.4546 7.75261 19.3511 7.5196 19.1443L1.24131 13.5709C0.453103 12.8711 0.0589908 12.5214 0.00999033 12.1942C-0.0325539 11.9099 0.0622564 11.6225 0.266282 11.4172C0.501171 11.1808 1.02877 11.126 2.08398 11.0163L10.4889 10.1424C10.8008 10.11 10.9568 10.0938 11.0917 10.0346C11.211 9.98225 11.3178 9.90577 11.4053 9.81015C11.5041 9.70209 11.5679 9.56098 11.6957 9.27876L15.1366 1.67476Z" fill="#FFFFFC"/>
</svg>
