<svg width="21" height="18" viewBox="0 0 21 18" fill="none" xmlns="http://www.w3.org/2000/svg">
<path d="M1.27085 7.83842L13.7955 2.48821C15.0245 1.9446 19.2224 0.156429 19.2224 0.156429C19.2224 0.156429 21.1556 -0.616061 20.9899 1.27225C20.9899 2.04474 20.5066 4.77707 20.0785 7.72397L18.6977 16.4646C18.6977 16.4646 18.5872 17.7377 17.6758 17.9666C16.7644 18.1955 15.2592 17.1798 14.9831 16.9652C14.7069 16.7507 10.9509 14.2901 9.55618 13.0599C9.41061 12.9661 9.29051 12.8355 9.20724 12.6803C9.12396 12.5251 9.08026 12.3505 9.08026 12.1729C9.08026 11.9954 9.12396 11.8208 9.20724 11.6656C9.29051 11.5104 9.41061 11.3797 9.55618 11.286C11.4894 9.45493 13.8093 7.16606 15.204 5.72122C15.8392 5.04887 16.4882 3.48958 13.8231 5.3922L6.33871 10.6709C5.94801 10.8436 5.52761 10.9327 5.10281 10.9327C4.67802 10.9327 4.25762 10.8436 3.86692 10.6709C2.25128 10.1702 0.373275 9.49784 0.373275 9.49784C0.373275 9.49784 -0.91095 8.66813 1.28466 7.7812L1.27085 7.83842Z" fill="#FFFFFC"/>
</svg>
