<svg width="75" height="68" viewBox="0 0 75 68" fill="none" xmlns="http://www.w3.org/2000/svg">
<path fill-rule="evenodd" clip-rule="evenodd" d="M73.6279 31.3509L74.509 28.1906L71.2366 28.317C70.9849 28.317 69.097 28.317 67.0833 26.9264C67.2091 26.9264 67.335 26.9264 67.5867 26.9264C69.6004 26.9264 71.3625 25.7887 72.2435 24.0189L73.6279 20.9849C71.8659 20.9849 70.2297 20.7321 70.2297 20.7321C70.2297 20.7321 68.9711 20.6057 67.5867 19.0887C66.5798 18.0774 65.3212 17.4453 63.9368 17.4453C63.3075 17.4453 62.804 17.5717 62.3006 17.6981C62.4265 17.4453 62.4265 17.1925 62.5523 16.9396C63.0558 14.0321 61.1679 11.883 61.1679 11.883L58.7765 8.84906L57.2662 12.3887C57.2662 12.3887 56.8887 13.1472 56.2594 13.6528C56.0076 12.6415 55.5042 11.3774 54.4973 10.2396C52.4836 8.09057 49.9664 7.83774 48.7078 7.83774C48.0785 7.83774 47.7009 7.96415 47.5751 7.96415L44.6803 8.59623C44.8062 7.83774 45.3096 6.82641 45.813 5.81509L47.4492 3.28679L43.4217 3.79245L42.1631 1.01132L39.7718 2.5283L37.3805 0L35.115 2.27547L32.5978 1.01132L31.3392 3.79245L27.3117 3.28679L28.9479 5.81509C29.703 6.82641 29.9548 7.96415 30.0806 8.59623L27.3117 7.96415H27.1858C27.06 7.96415 26.5566 7.83774 26.0531 7.83774C24.7945 7.83774 22.4032 8.21698 20.2636 10.2396C19.2567 11.3774 18.6274 12.5151 18.5016 13.6528C17.7464 13.2736 17.4947 12.5151 17.4947 12.5151L15.9844 8.97547L13.593 12.0094C13.2155 12.3887 11.831 14.4113 12.2086 17.066C12.2086 17.3189 12.3344 17.5717 12.4603 17.8245C11.9569 17.4453 11.4534 17.3189 10.8241 17.3189C9.43969 17.3189 8.18109 17.9509 7.17422 18.9623C5.78976 20.4792 4.53117 20.6057 4.53117 20.6057C4.53117 20.6057 3.27258 20.8585 1.13297 20.8585L2.51742 24.0189C3.27258 25.7887 5.16047 26.9264 7.17422 26.9264C7.30008 26.9264 7.42594 26.9264 7.67765 26.9264C5.78976 28.317 3.90187 28.317 3.65016 28.317L0.251953 28.1906L1.25883 31.3509C1.76227 32.9943 3.39844 35.6491 6.54492 35.9019C6.16734 37.4189 5.41219 39.0623 3.77601 39.6943L1.25883 40.5792L2.51742 42.8547C3.27258 44.1189 5.03461 45.5094 7.55179 45.5094C8.18109 45.5094 8.55867 45.5094 9.18797 45.383C9.31383 46.0151 9.43968 46.5208 9.6914 47.1528C10.4466 49.3019 9.81726 50.9453 9.81726 50.9453L8.68453 53.4736L11.0759 54.3585C11.0759 54.3585 11.831 54.6113 12.9637 54.6113C13.4672 54.6113 13.8448 54.6113 14.2223 54.4849C14.5999 54.3585 14.8516 54.3585 15.1034 54.2321C15.4809 54.8641 15.8585 55.3698 16.3619 56.0019C18.124 57.7717 20.5153 58.6566 23.5359 58.6566H25.6755L21.1446 60.5528L24.6687 62.1962C25.9273 62.8283 27.4376 63.5868 28.9479 64.0924L28.4444 65.2302L29.5772 65.8623C29.703 65.8623 31.9685 66.8736 35.7443 67.1264C35.7443 67.1264 36.6253 67.1264 37.1287 67.1264C37.6322 67.1264 38.5132 67.1264 38.5132 67.1264C42.289 66.8736 44.5544 65.8623 44.6803 65.8623L45.813 65.2302L45.3096 64.0924C46.8199 63.4604 48.4561 62.8283 49.5888 62.1962L52.987 60.5528L48.4561 58.6566H50.5957C53.7422 58.6566 56.1335 57.7717 57.7697 56.0019C58.2731 55.4962 58.6507 54.9906 59.0283 54.2321C59.28 54.3585 59.6576 54.4849 59.9093 54.4849C60.4127 54.6113 60.6644 54.6113 61.1679 54.6113C62.1747 54.6113 63.0558 54.3585 63.0558 54.3585L65.6988 53.6L64.5661 51.1981C64.5661 51.0717 63.8109 49.5547 64.6919 47.4057C64.9437 46.7736 65.0695 46.2679 65.1954 45.6358C65.6988 45.7623 66.2022 45.7623 66.8315 45.7623C69.978 45.7623 71.6142 43.6132 71.8659 42.9811L73.1245 40.7057L70.7332 39.6943C68.9711 38.9358 68.3419 37.4189 67.9643 35.9019C71.4883 35.5226 73.1245 32.8679 73.6279 31.3509Z" fill="#FFFFFE"/>
<path fill-rule="evenodd" clip-rule="evenodd" d="M37.3807 9.60742C34.8635 9.60742 32.8497 10.3659 32.4722 11.5036L37.3807 13.5263L42.4151 11.5036C41.9116 10.3659 39.8979 9.60742 37.3807 9.60742Z" fill="#FFFFFE"/>
<path fill-rule="evenodd" clip-rule="evenodd" d="M37.5065 61.3118C35.8703 61.3118 33.7307 60.9325 32.5979 60.6797L31.3394 64.0929C32.0945 64.4721 34.8634 64.8514 37.3806 64.8514C39.8978 64.8514 42.5408 64.2193 43.4219 64.0929L42.1633 60.6797C41.1564 60.9325 39.0168 61.3118 37.5065 61.3118Z" fill="#FFFFFE"/>
<path fill-rule="evenodd" clip-rule="evenodd" d="M46.8199 57.8984C45.9388 58.5305 43.7992 59.1626 42.6665 59.6683L43.6734 62.4494C45.5613 61.9437 47.0716 61.3116 48.3302 60.6796L46.1906 59.9211L46.8199 57.8984Z" fill="#FFFFFE"/>
<path fill-rule="evenodd" clip-rule="evenodd" d="M27.815 57.8984L28.4443 60.0475L26.3047 60.6796C27.5633 61.4381 29.0736 61.9437 30.9615 62.4494L31.9684 59.6683C30.8356 59.1626 28.8219 58.4041 27.815 57.8984Z" fill="#FFFFFE"/>
<path fill-rule="evenodd" clip-rule="evenodd" d="M37.3802 6.32053C39.394 6.32053 41.156 6.82619 42.6663 7.58468C42.7922 7.07902 43.0439 6.57336 43.2956 5.94129L42.6663 6.0677L42.037 6.19412L41.7853 5.56204L41.0302 3.91865L39.6457 4.67714L39.0164 4.92997L38.6388 4.67714L37.1285 3.16016L35.6182 4.67714L35.1148 5.1828L34.4855 4.92997L33.3527 4.17148L32.5976 5.81487L32.7234 6.32053L32.0941 6.19412L31.4648 6.0677C31.7166 6.69978 31.9683 7.20544 32.0941 7.7111C33.4786 6.82619 35.3665 6.32053 37.3802 6.32053Z" fill="#FFFFFE"/>
<path fill-rule="evenodd" clip-rule="evenodd" d="M66.9575 24.3986C67.2092 24.525 67.4609 24.525 67.7126 24.525C68.7195 24.525 69.8522 23.7665 70.2298 23.008C70.2298 23.008 68.2161 22.8816 66.0764 20.7326C65.3213 19.9741 64.692 19.8477 63.9368 19.8477C63.0558 19.8477 62.1748 20.3533 62.1748 20.3533C64.8179 21.7439 65.4471 24.0194 66.9575 24.3986Z" fill="#FFFFFE"/>
<path fill-rule="evenodd" clip-rule="evenodd" d="M7.04832 24.6514C7.30004 24.6514 7.55176 24.6514 7.80348 24.525C9.31379 24.0194 9.94308 21.7439 12.4603 20.3533C12.4603 20.3533 11.7051 19.8477 10.6982 19.8477C10.0689 19.8477 9.31379 20.1005 8.55863 20.7326C6.41902 22.8816 4.40527 23.008 4.40527 23.008C4.90871 23.8929 5.91559 24.6514 7.04832 24.6514Z" fill="#FFFFFE"/>
<path fill-rule="evenodd" clip-rule="evenodd" d="M66.0762 40.5789C64.0625 39.5676 62.8039 36.9128 62.5522 35.9015C62.1746 41.0845 59.6574 44.877 56.6368 48.2902C55.1265 50.1864 54.4972 51.8298 54.4972 51.8298C54.4972 51.8298 54.8748 49.8072 56.1334 48.2902C58.9023 44.877 61.5453 40.7053 61.797 35.9015C61.9229 32.4883 61.0419 29.7072 59.6574 27.5581C60.4126 29.8336 60.4126 32.7411 57.6437 35.3959C57.6437 35.3959 62.678 29.2015 55.5041 23.0072C52.6093 20.6053 49.4628 19.2147 47.8266 17.9506C53.6162 19.8468 56.5109 17.6977 56.5109 17.6977C54.623 19.3411 52.2317 19.3411 50.7214 19.0883C51.2248 19.3411 51.4766 19.4676 51.98 19.8468C56.8885 22.5015 61.2936 26.926 62.0487 33.1204C63.5591 39.0619 66.0762 40.5789 66.0762 40.5789ZM67.5866 33.626C70.4813 33.626 71.3623 30.7185 71.3623 30.7185C70.8589 30.7185 66.8314 30.5921 63.9366 26.926C62.0487 24.5242 60.4126 22.3751 57.5178 21.6166H57.1402L57.0144 21.2374C56.8885 20.7317 57.2661 20.3525 57.8954 19.8468C62.1746 17.0657 59.2798 13.3996 59.2798 13.3996C59.2798 13.3996 58.1471 16.1808 55.3782 16.1808C55.2523 16.1808 55.2523 16.1808 55.1265 16.1808C54.7489 16.1808 54.4972 16.1808 54.2455 16.0544L53.742 15.9279C53.742 15.9279 54.4972 13.7789 52.7352 11.8827C51.2248 10.4921 49.5887 10.2393 48.5818 10.2393C48.0784 10.2393 47.8266 10.3657 47.8266 10.3657C48.7077 11.6298 49.4628 13.6525 48.4559 14.9166C47.5749 15.9279 45.1836 16.0544 45.1836 17.6977C45.1836 18.4562 45.8129 19.2147 46.9456 19.8468C50.4697 21.9959 53.742 24.9034 55.1265 28.8223C56.8885 33.626 54.8748 36.7864 52.1059 38.6827C52.1059 38.6827 52.9869 39.4411 54.2455 39.5676C54.4972 39.5676 54.7489 39.5676 55.0006 39.5676C57.7695 39.5676 59.154 38.3034 59.154 38.3034C59.154 38.3034 58.9023 40.0732 57.5178 41.7166C56.2592 43.2336 54.4972 44.1185 51.8541 44.1185C51.8541 44.1185 51.7283 45.3827 52.861 46.394C53.6162 47.1525 55.2523 47.2789 55.2523 47.2789C55.2523 47.2789 51.98 48.0374 51.7283 52.7147C51.4766 55.243 50.9731 56.2544 50.9731 56.2544C58.3988 56.2544 58.273 49.8072 58.273 49.8072C58.273 49.8072 58.7764 51.7034 60.7901 52.2091C61.0419 52.3355 61.2936 52.3355 61.5453 52.3355C62.3005 52.3355 62.8039 52.2091 62.8039 52.2091C62.8039 52.2091 61.797 49.9336 62.8039 46.6468C63.6849 43.9921 63.5591 41.9694 63.5591 41.9694C63.5591 41.9694 64.5659 43.4864 67.0831 43.4864C69.2227 43.4864 70.1037 41.843 70.1037 41.843C65.0694 39.694 65.5728 33.1204 65.5728 33.1204C65.5728 33.1204 66.328 33.626 67.5866 33.626Z" fill="#FFFFFE"/>
<path fill-rule="evenodd" clip-rule="evenodd" d="M17.9981 48.4166C14.9775 44.877 12.4603 41.211 12.0827 36.0279C11.7052 36.9128 10.4466 39.5676 8.55867 40.7053C8.55867 40.7053 11.0759 39.1883 12.2086 33.1204C12.9637 26.9261 17.3688 22.5015 22.2773 19.8468C22.7808 19.594 23.1584 19.3411 23.5359 19.0883C22.0256 19.3411 19.6343 19.3411 17.7464 17.6977C17.7464 17.6977 20.6412 19.8468 26.4307 17.9506C24.7945 18.9619 21.648 20.4789 18.7533 23.0072C11.5793 29.3279 16.6137 35.3959 16.6137 35.3959C14.0965 32.7411 13.9706 29.8336 14.5999 27.5581C13.2155 29.7072 12.4603 32.6147 12.4603 35.9015C12.712 40.8317 15.3551 45.0034 18.124 48.2902C19.5084 49.9336 19.7602 51.8298 19.7602 51.8298C19.7602 51.8298 19.6343 50.1864 17.9981 48.4166ZM19.2567 47.2789C19.2567 47.2789 21.0187 47.0261 21.648 46.394C22.7808 45.3827 22.6549 44.1185 22.6549 44.1185C20.0119 44.1185 18.3757 43.2336 16.9912 41.7166C15.6068 40.0732 15.3551 38.3034 15.3551 38.3034C15.3551 38.3034 16.7395 39.5676 19.5084 39.5676C19.7602 39.5676 20.0119 39.5676 20.2636 39.5676C21.5222 39.4411 22.4032 38.6827 22.4032 38.6827C19.5084 36.7864 17.4947 33.626 19.2567 28.8223C20.6412 25.0298 24.1652 22.1223 27.4376 19.8468C28.5703 19.0883 29.1996 18.3298 29.1996 17.6977C29.1996 16.0544 26.9341 16.0544 25.9273 14.9166C24.9204 13.6525 25.5497 11.6298 26.5566 10.3657C26.5566 10.3657 26.179 10.2393 25.8014 10.2393C24.9204 10.2393 23.1584 10.4921 21.7739 12.0091C19.886 14.0317 20.767 16.0544 20.767 16.0544L20.2636 16.1808C19.886 16.3072 19.6343 16.3072 19.3826 16.3072C19.2567 16.3072 19.2567 16.3072 19.1309 16.3072C16.4878 16.3072 15.2292 13.526 15.2292 13.526C15.2292 13.526 12.3344 17.0657 16.6137 19.9732C17.3688 20.4789 17.6205 20.8581 17.4947 21.3638L17.6205 21.4902H17.243C14.2223 22.2487 12.5862 24.3977 10.8241 26.7996C7.92937 30.4657 3.90187 30.5921 3.39844 30.5921C3.39844 30.5921 4.27945 33.4996 7.04836 33.4996H7.17422C8.43281 33.4996 9.06211 32.8676 9.06211 32.8676C9.06211 32.8676 9.56554 39.5676 4.53117 41.5902C4.53117 41.5902 5.41219 43.2336 7.5518 43.2336C10.069 43.2336 11.0759 41.7166 11.0759 41.7166C11.0759 41.7166 10.95 43.7393 11.831 46.394C12.8379 49.6808 11.831 51.9562 11.831 51.9562C11.831 51.9562 12.4603 52.0827 13.0896 52.0827C13.3413 52.0827 13.7189 52.0827 13.8448 51.9562C15.9844 51.4506 16.3619 49.5544 16.3619 49.5544C16.3619 49.5544 16.1102 56.0015 23.6618 56.0015C23.6618 56.0015 22.9066 55.1166 22.9066 52.4619C22.4032 47.911 19.2567 47.2789 19.2567 47.2789Z" fill="#FFFFFE"/>
<path fill-rule="evenodd" clip-rule="evenodd" d="M35.7445 23.6398H39.2686V24.7775C38.7651 24.2718 38.01 24.3983 38.01 24.3983V26.1681C38.01 26.1681 38.01 26.9266 38.3875 27.4322H36.4996C36.8772 27.053 36.8772 26.1681 36.8772 26.1681V24.3983C36.8772 24.3983 36.1221 24.2718 35.6186 24.7775L35.7445 23.6398ZM31.9687 23.7662C32.0946 23.8926 32.2204 24.019 32.3463 24.2718C32.3463 24.2718 32.3463 24.3983 32.4721 24.3983C32.598 24.5247 32.7239 24.7775 32.8497 24.9039C32.8497 24.9039 32.8497 25.0303 32.9756 25.0303C33.1014 25.2832 33.2273 25.4096 33.3532 25.6624C34.36 27.5586 36.1221 28.6964 37.6324 28.6964C39.1427 28.6964 40.9047 27.5586 41.9116 25.6624C42.0375 25.4096 42.1633 25.1568 42.2892 25.0303C42.2892 25.0303 42.2892 25.0303 42.2892 24.9039C42.415 24.7775 42.5409 24.5247 42.6668 24.3983C42.6668 24.3983 42.6668 24.2718 42.7926 24.2718C42.9185 24.1454 43.0443 23.8926 43.1702 23.7662C43.1702 23.7662 43.1702 23.7662 43.2961 23.6398C43.9253 23.0077 44.4288 22.6285 45.4357 22.3756L45.0581 22.1228L43.5478 21.2379L41.7857 20.2266L37.6324 22.502L33.3532 20.2266L31.8428 21.1115L30.2067 22.2492L29.8291 22.502C30.5843 22.7549 31.2136 23.1341 31.9687 23.7662C31.8428 23.7662 31.8428 23.7662 31.9687 23.7662Z" fill="#FFFFFE"/>
<path fill-rule="evenodd" clip-rule="evenodd" d="M36.1221 15.9284V17.0661L35.8704 16.9397C35.8704 16.9397 35.4928 16.8133 34.9894 16.3076C33.9825 15.6756 33.9825 15.0435 33.9825 15.0435L36.1221 15.9284ZM37.0031 21.2378V14.1586L32.4722 12.6416L33.6049 19.468L37.0031 21.2378Z" fill="#FFFFFE"/>
<path fill-rule="evenodd" clip-rule="evenodd" d="M38.7651 15.9284L40.9047 15.1699C40.9047 15.1699 40.9047 15.9284 40.0237 16.5605C39.3944 17.0661 39.1426 17.0661 39.1426 17.1925L38.8909 17.319V15.9284H38.7651ZM41.0305 19.468L42.1633 12.6416L37.6323 14.1586V21.2378L41.0305 19.468Z" fill="#FFFFFE"/>
<path fill-rule="evenodd" clip-rule="evenodd" d="M30.5842 37.672C31.0876 37.7984 31.4652 37.9248 31.8428 37.9248V37.7984C31.8428 37.672 31.8428 37.672 31.9686 37.5455C32.0945 37.1663 32.0945 36.787 32.0945 36.4078C31.8428 36.2814 31.591 36.0286 31.4652 35.7757C31.4652 35.5229 31.2135 35.3965 30.8359 35.3965C30.3325 35.3965 29.9549 35.6493 29.7032 35.7757C29.4514 36.6606 30.2066 37.5455 30.5842 37.672Z" fill="#FFFFFE"/>
<path fill-rule="evenodd" clip-rule="evenodd" d="M40.5268 34.0059C39.7716 34.8908 38.1355 36.5342 38.0096 36.5342L37.8837 36.6606L32.7235 36.5342C32.7235 37.0398 32.5977 37.4191 32.5977 37.7983V37.9247L38.7648 39.0625C39.5199 38.5568 41.1561 37.2927 41.9112 36.9134C41.4078 36.1549 41.282 35.27 41.4078 34.7644C41.0302 34.3851 40.7785 34.1323 40.5268 34.0059Z" fill="#FFFFFE"/>
<path fill-rule="evenodd" clip-rule="evenodd" d="M41.2818 27.685C40.1491 28.8227 39.0164 29.3284 37.8836 29.4548C37.6319 29.4548 37.5061 29.4548 37.2544 29.4548C37.0026 29.4548 36.8768 29.4548 36.6251 29.4548C36.3733 29.4548 36.2475 29.4548 35.9958 29.3284C35.8699 29.5812 35.8699 30.0869 36.1216 30.719C36.3733 31.2246 36.8768 31.4775 37.3802 31.7303L37.6319 31.8567V32.1095C37.6319 32.236 37.6319 33.7529 39.394 34.1322C39.6457 33.8793 39.8974 33.5001 40.1491 33.3737C39.7715 32.6152 40.0233 31.7303 40.5267 31.351C40.5267 31.4775 40.275 33.5001 41.9111 34.1322L42.1629 34.2586L42.037 34.5114C42.037 34.6378 41.4077 36.5341 43.4215 37.1661L43.799 37.2926L43.6732 37.6718C43.6732 37.7982 42.918 39.568 44.5542 40.4529H48.33V37.419C46.9455 37.2926 46.3162 36.1548 46.1904 35.2699C45.5611 35.1435 45.0576 34.8907 44.6801 34.5114C43.9249 33.5001 44.5542 32.3624 44.5542 32.3624C44.5542 32.3624 44.5542 33.3737 45.1835 34.1322C45.5611 34.5114 45.9386 34.7643 46.4421 34.7643H46.6938V35.0171C46.6938 35.1435 46.8197 36.5341 48.2041 36.6605V30.3397C48.2041 29.4548 48.4558 28.3171 48.8334 27.5586L41.2818 27.685Z" fill="#FFFFFE"/>
<path fill-rule="evenodd" clip-rule="evenodd" d="M30.9618 30.5929L30.8359 34.5118L31.3394 34.6382L32.3463 30.8457L31.717 29.708L30.9618 30.5929Z" fill="#FFFFFE"/>
<path fill-rule="evenodd" clip-rule="evenodd" d="M33.3528 45.2569C33.2269 45.2569 33.1011 45.1305 33.1011 45.0041C33.1011 44.8777 33.2269 44.7513 33.3528 44.7513C33.4786 44.7513 33.6045 44.8777 33.6045 45.0041C33.6045 45.2569 33.4786 45.2569 33.3528 45.2569ZM43.1698 48.7965C43.925 49.0494 44.0508 51.4513 45.3094 51.7041C45.4353 51.7041 45.5611 51.7041 45.687 51.7041C46.0646 51.7041 46.3163 51.5777 46.4421 51.1984C46.4421 51.1984 45.8128 50.3135 45.4353 49.555C44.806 48.7965 44.4284 47.6588 43.2957 47.6588H43.1698C42.7922 47.6588 42.5405 47.9116 42.5405 47.9116C42.0371 47.6588 41.6595 47.5324 41.2819 47.5324C40.5268 47.5324 40.0233 47.9116 39.7716 47.9116L37.1286 47.6588C36.751 47.6588 36.3734 47.1531 36.3734 47.0267V46.9003C36.3734 46.7739 36.3734 46.7739 36.3734 46.6475C36.2475 44.4984 34.7372 43.7399 34.2338 43.7399C34.2338 43.7399 34.3596 43.3607 34.1079 43.1079L33.4786 43.8664L31.5907 42.9814L32.8493 44.4984L31.8425 45.7626C31.7166 45.889 31.7166 46.1418 31.7166 46.2682L32.22 46.7739L32.8493 46.3947H32.9752C33.1011 46.3947 33.4786 46.3947 33.6045 46.3947C33.8562 46.3947 34.1079 46.3947 34.1079 46.1418C33.9821 46.9003 33.3528 48.2909 33.7304 49.3022L34.1079 50.0607L31.9683 49.6814L30.9614 51.4513C30.5839 52.0833 30.5839 52.589 30.8356 52.9682L31.2132 53.4739C31.2132 53.4739 31.8425 52.8418 31.9683 52.589L32.0942 52.2097C31.9683 52.0833 31.9683 51.8305 32.0942 51.7041L32.8493 50.6928L35.3665 51.3248L35.4924 51.072C35.7441 50.6928 35.9958 50.6928 36.2475 50.6928C36.3734 50.6928 36.4993 50.6928 36.6251 50.6928C37.1286 50.8192 37.8837 50.9456 38.7647 50.9456C39.6457 50.9456 40.5268 50.8192 40.9043 50.1871C41.7853 51.5777 43.7991 51.8305 43.5474 52.4626L43.0439 54.8645C43.4215 54.8645 43.7991 54.8645 43.925 54.738L44.4284 52.2097C44.4284 51.9569 44.5543 51.4513 44.5543 51.4513C44.3025 51.1984 43.925 50.8192 43.6732 50.4399C43.2957 49.6814 43.5474 49.4286 43.1698 48.5437C42.7922 48.923 42.9181 48.7965 43.1698 48.7965Z" fill="#FFFFFE"/>
<path fill-rule="evenodd" clip-rule="evenodd" d="M29.8288 51.0721C29.8288 51.0721 30.584 50.6929 30.7098 50.4401L30.584 50.1872C30.4581 49.9344 30.4581 49.808 30.7098 49.6816L31.5909 48.9231L33.1012 49.3023C33.1012 49.3023 32.8495 48.9231 32.8495 48.5438L31.465 48.291L30.0806 49.0495C29.4513 49.5552 29.3254 50.1872 29.5771 50.6929L29.8288 51.0721Z" fill="#FFFFFE"/>
<path fill-rule="evenodd" clip-rule="evenodd" d="M40.7787 55.1169C41.0304 55.1169 41.408 55.1169 41.6597 55.1169C41.6597 55.1169 42.4149 52.8414 42.4149 52.715C41.9114 52.4622 41.0304 51.9565 40.6528 51.8301C40.9046 52.2093 41.408 52.5886 41.408 52.8414L40.7787 55.1169Z" fill="#FFFFFE"/>
<path fill-rule="evenodd" clip-rule="evenodd" d="M48.4559 41.2109H26.3047V49.5543C26.3047 52.9675 28.696 55.1166 32.4718 55.1166C35.4924 55.1166 36.2476 55.243 37.5062 56.3807C38.2613 55.6223 38.8906 55.3694 40.2751 55.243V55.1166L41.0302 52.9675L39.8975 51.577C39.3941 51.7034 39.1423 51.8298 38.3872 51.8298C37.632 51.8298 37.0027 51.7034 36.2476 51.577C36.1217 51.577 36.1217 51.577 35.9959 51.577C35.87 51.577 35.87 51.577 35.87 51.577L35.7441 51.8298L35.4924 52.3355L34.8631 52.2091L32.7235 51.577L32.3459 52.0826L32.5977 52.3355L32.4718 52.8411C32.3459 53.3468 31.7166 53.8525 31.7166 53.9789L31.0873 54.6109L30.5839 53.9789L30.2063 53.4732C29.8287 52.9675 29.7029 52.4619 29.9546 51.7034L29.3253 51.9562L29.0736 51.3241L28.8219 50.8185C28.4443 50.06 28.5702 48.9223 29.577 48.4166L31.3391 47.5317L32.9752 47.9109C32.9752 47.7845 33.1011 47.1524 33.1011 47.1524H32.9752L32.0942 47.5317L31.2132 46.8996C31.2132 46.8996 30.8356 46.5204 31.2132 46.1411L32.0942 44.877L29.8288 41.843L33.227 43.2336L33.4787 42.9808L33.9821 42.3487L34.6114 42.8543C34.7373 42.9808 34.8631 43.2336 34.8631 43.36C35.7441 43.7392 37.5062 44.877 37.632 46.6468L37.0027 46.8996C37.1286 47.026 37.2545 47.1524 37.2545 47.1524L39.6458 47.4053C39.7716 47.4053 39.7716 47.4053 39.8975 47.2789C40.2751 47.1525 40.6527 47.026 41.1561 47.026C41.6595 47.026 41.9112 47.1524 42.4147 47.4053C42.5405 47.4053 42.7923 47.2789 43.044 47.2789H43.1698C44.4284 47.2789 45.1836 48.1638 45.5612 49.0487C45.687 49.1751 45.687 49.3015 45.8129 49.4279C46.3163 50.1864 46.8198 51.0713 46.8198 51.0713L47.0715 51.577L46.568 51.7034C46.3163 52.0826 45.9387 52.4619 45.3094 52.4619C45.1836 52.4619 45.0577 52.4619 44.806 52.4619C44.6801 52.4619 44.5543 52.3355 44.4284 52.3355C44.4284 52.4619 44.4284 52.5883 44.3026 52.8411L43.7991 54.9902C46.3163 54.3581 47.9525 52.4619 47.9525 49.6808L48.4559 41.2109Z" fill="#FFE52B"/>
<path fill-rule="evenodd" clip-rule="evenodd" d="M26.3046 40.453H43.5473C42.7922 39.5681 42.7922 38.4304 42.918 37.6719C42.6663 37.5455 42.4146 37.4191 42.1629 37.1662C41.4077 37.6719 39.394 39.1889 38.8905 39.4417L39.0164 39.6945L32.3459 38.4304H32.22C32.0941 38.4304 31.8424 38.4304 31.4648 38.4304C31.339 38.8096 31.0873 38.9361 30.8355 38.9361H30.7097C30.458 38.9361 30.3321 38.8096 30.2062 38.6832C30.2062 38.4304 30.2062 38.304 30.2062 38.1776V38.0511C29.4511 37.5455 28.8218 36.4077 29.1994 35.27V35.1436L29.3252 35.0172C29.3252 35.0172 29.4511 34.8908 29.7028 34.7644L28.9477 34.8908C28.6959 34.8908 28.5701 34.6379 28.6959 34.5115C28.6959 34.2587 28.9477 34.1323 29.0735 34.2587L30.2062 34.5115L30.3321 30.3398L32.0941 28.4436L33.101 30.7191L31.9683 34.6379L32.9752 34.7644C33.2269 34.7644 33.3527 35.0172 33.2269 35.1436C33.2269 35.27 33.101 35.3964 32.8493 35.3964H31.9683C31.9683 35.3964 31.9683 35.3964 31.9683 35.5228C32.0941 35.7757 32.22 35.9021 32.3459 35.9021L37.3802 36.0285C37.6319 35.7757 38.1354 35.27 38.6388 34.7644C37.3802 34.2587 36.8768 33.121 36.7509 32.4889C35.9958 32.1096 35.6182 31.7304 35.2406 31.0983C34.863 30.3398 34.9889 29.5813 35.1148 29.2021C34.3596 28.9493 33.7303 28.4436 32.9752 27.8115H25.1719C25.5495 28.6964 25.8012 29.7078 25.8012 30.5927V40.453H26.3046Z" fill="#FFE52B"/>
<path fill-rule="evenodd" clip-rule="evenodd" d="M33.3528 44.751C33.2269 44.751 33.1011 44.8774 33.1011 45.0038C33.1011 45.1302 33.2269 45.2566 33.3528 45.2566C33.4787 45.2566 33.6045 45.1302 33.6045 45.0038C33.6045 44.8774 33.4787 44.751 33.3528 44.751Z" fill="#1A1919"/>
<path fill-rule="evenodd" clip-rule="evenodd" d="M43.5474 62.3225L42.5405 59.5413C43.6732 59.1621 45.8128 58.4036 46.6938 57.7715L46.0645 59.9206L48.2042 60.6791C47.0714 61.3111 45.4352 61.8168 43.5474 62.3225ZM37.3803 64.8508C34.9889 64.8508 32.22 64.2187 31.339 64.0923L32.5976 60.6791C33.6045 61.0583 35.7441 61.3111 37.3803 61.3111H37.5061C39.0164 61.3111 41.156 60.9319 42.2888 60.6791L43.5474 64.0923C42.5405 64.2187 39.7716 64.8508 37.3803 64.8508ZM26.4305 60.5527L28.5701 59.7942L27.8149 57.7715C28.696 58.4036 30.8356 59.0357 31.9683 59.5413L30.9614 62.3225C29.1994 61.8168 27.6891 61.3112 26.4305 60.5527ZM48.33 59.9206L47.0714 59.4149L47.449 58.1508L47.8266 56.7602C47.8266 56.7602 45.5611 58.0244 42.4146 58.9093C41.5336 59.1621 40.7785 59.2885 40.7785 59.2885V60.1734C40.7785 60.1734 39.0164 60.5527 37.2544 60.5527H37.1285C35.3665 60.5527 33.6045 60.1734 33.6045 60.1734V59.1621C33.6045 59.1621 32.8493 59.0357 31.9683 58.7828C28.8218 57.8979 26.5563 56.6338 26.5563 56.6338L26.9339 58.0244L27.3115 59.2885L26.0529 59.7942L24.6685 60.4262C26.3046 61.1847 28.4442 62.4489 30.5838 62.9545L30.0804 64.2187C30.0804 64.2187 32.7235 65.3564 37.0027 65.3564H37.1285C41.5336 65.3564 44.0508 64.2187 44.0508 64.2187L43.5474 62.9545C45.687 62.3225 47.8266 61.1847 49.4627 60.4262L48.33 59.9206Z" fill="#1A1919"/>
<path fill-rule="evenodd" clip-rule="evenodd" d="M31.9683 6.06774L32.5976 6.19416L32.8494 5.56208L33.6045 4.0451L34.989 4.80359L35.6183 5.05642L37.5061 3.1602L38.8906 4.67718L39.394 5.18284L40.0233 4.93001L41.4078 4.17152L42.1629 5.81491L42.4147 6.44699L42.7922 6.32057L43.4215 6.19416C43.1698 6.82623 42.9181 7.33189 42.7922 7.83756C41.2819 7.07906 39.394 6.5734 37.5061 6.5734C35.4924 6.5734 33.7304 7.07906 32.2201 7.83756C32.0942 7.33189 31.8425 6.82623 31.5908 6.19416L31.9683 6.06774ZM37.3803 7.07906C39.8975 7.07906 42.0371 7.83756 43.1698 8.84888C43.1698 8.84888 43.5474 6.69982 44.6801 5.05642L42.5405 5.30925L41.5336 2.90737L39.394 4.0451L37.2544 2.02246L35.2407 4.17152L33.1011 3.1602L32.0942 5.43567L29.9546 5.18284C31.0873 7.07906 31.4649 8.97529 31.4649 8.97529C32.7235 8.09039 34.7372 7.07906 37.3803 7.07906Z" fill="#1A1919"/>
<path fill-rule="evenodd" clip-rule="evenodd" d="M70.2295 41.8437C70.2295 41.8437 69.3485 43.4871 67.2089 43.4871C64.8176 43.4871 63.6848 41.9701 63.6848 41.9701C63.6848 41.9701 63.8107 43.9928 62.9297 46.6475C61.9228 49.9343 62.9297 52.2097 62.9297 52.2097C62.9297 52.2097 62.3004 52.3362 61.6711 52.3362C61.4193 52.3362 61.0418 52.3362 60.9159 52.2097C58.7763 51.7041 58.3987 49.8079 58.3987 49.8079C58.3987 49.8079 58.6504 56.255 51.0989 56.255H50.973C50.973 56.255 51.7282 55.3701 51.7282 52.7154C52.1058 47.9116 55.2522 47.2796 55.2522 47.2796C55.2522 47.2796 53.4902 47.0267 52.8609 46.3947C51.7282 45.3833 51.854 44.1192 51.854 44.1192C54.4971 44.1192 56.1333 43.2343 57.5177 41.7173C58.9022 40.0739 59.1539 38.3041 59.1539 38.3041C59.1539 38.3041 57.7694 39.6947 55.0005 39.6947C54.7488 39.6947 54.4971 39.6947 54.2454 39.6947C52.9868 39.5682 52.1058 38.8097 52.1058 38.8097C55.0005 36.9135 57.0143 33.7531 55.1264 28.9494C53.7419 25.1569 50.2179 22.2494 46.9455 19.9739C45.8128 19.2154 45.1835 18.4569 45.1835 17.8248C45.1835 16.1814 47.449 16.1814 48.4558 15.0437C49.4627 13.7796 48.8334 11.7569 47.8265 10.4928C47.8265 10.4928 48.2041 10.3664 48.5817 10.3664C49.4627 10.3664 51.2247 10.6192 52.6092 12.1362C54.4971 14.1588 53.6161 16.1814 53.6161 16.1814L54.1195 16.3079C54.4971 16.4343 54.7488 16.4343 55.0005 16.4343C55.1264 16.4343 55.1264 16.4343 55.2522 16.4343C57.8953 16.4343 59.1539 13.6531 59.1539 13.6531C59.1539 13.6531 62.0486 17.1928 57.7694 20.1003C57.0143 20.606 56.7626 20.9852 56.8884 21.4909L57.0143 21.8701H57.3918C60.4125 22.6286 62.0486 24.7777 63.8107 27.1796C66.7054 30.8456 70.7329 30.972 71.2364 30.972C71.2364 30.972 70.3554 33.8796 67.5865 33.8796H67.4606C66.202 33.8796 65.5727 33.2475 65.5727 33.2475C65.5727 33.2475 65.1951 39.8211 70.2295 41.8437ZM67.7123 34.5116C71.1105 34.5116 72.2433 30.972 72.2433 30.972L72.6208 29.8343H71.3622C70.8588 29.8343 67.2089 29.7079 64.6917 26.2947L64.44 25.9154C62.6779 23.7664 61.0418 21.6173 58.147 20.7324C58.2729 20.606 58.3987 20.606 58.5246 20.4796C60.0349 19.4682 60.9159 18.3305 61.1676 16.8135C61.5452 14.6645 60.1608 13.0211 60.0349 12.8947L59.1539 11.7569L58.5246 13.1475C58.5246 13.2739 57.5177 15.423 55.3781 15.423H55.2522C55.1264 15.423 55.0005 15.423 54.7488 15.423C54.8747 14.538 54.6229 12.8947 53.2385 11.5041C51.6023 9.73428 49.5886 9.48145 48.4558 9.48145C47.8265 9.48145 47.5748 9.60786 47.5748 9.60786L46.3162 9.86069L47.1972 10.9984C47.9524 11.8833 48.4558 13.5267 47.8265 14.4116C47.5748 14.6645 47.0714 14.9173 46.6938 15.1701C45.8128 15.6758 44.5542 16.1814 44.5542 17.6984C44.5542 18.7097 45.3094 19.8475 46.6938 20.606C50.8472 23.2607 53.3643 25.9154 54.4971 29.0758C56.2591 33.7531 53.8678 36.4079 51.854 37.7984L50.5954 38.5569L51.3506 39.3154C51.4765 39.4418 52.4833 40.3267 53.9936 40.4531C54.3712 40.4531 54.6229 40.4531 54.7488 40.4531C55.7557 40.4531 56.6367 40.3267 57.266 40.0739C57.0143 40.4531 56.7626 40.8324 56.5108 41.0852C55.2522 42.6022 53.7419 43.2343 51.4765 43.2343H50.7213V43.9928C50.7213 44.1192 50.5954 45.7626 52.1058 47.0267C52.3575 47.2796 52.6092 47.406 52.8609 47.5324C51.854 48.4173 50.8472 49.9343 50.7213 52.589C50.8472 54.8645 50.3437 55.623 50.3437 55.623L49.4627 57.0135H51.0989C53.7419 57.0135 55.8815 56.255 57.3918 54.8645C58.147 53.9796 58.7763 52.9682 59.028 52.0833C59.5315 52.4626 60.0349 52.8418 60.9159 52.9682C61.2935 53.0947 61.5452 53.0947 61.9228 53.0947C62.6779 53.0947 63.3072 52.9682 63.4331 52.8418L64.44 52.589L63.9365 51.7041C63.9365 51.5777 63.0555 49.555 63.9365 46.7739C64.3141 45.6362 64.5658 44.4984 64.6917 43.6135C65.4468 43.9928 66.202 44.2456 67.3347 44.2456C69.8519 44.2456 70.9847 42.223 71.1105 42.223L71.614 41.3381L70.4812 41.0852C67.3347 39.8211 66.7054 36.2814 66.5796 34.5116C66.8313 34.5116 67.2089 34.638 67.4606 34.638L67.7123 34.5116Z" fill="#1A1919"/>
<path fill-rule="evenodd" clip-rule="evenodd" d="M63.9366 19.8473C64.5659 19.8473 65.3211 20.1001 66.0762 20.7322C68.2159 22.8812 70.2296 23.0076 70.2296 23.0076C69.852 23.7661 68.8452 24.5246 67.7124 24.5246C67.4607 24.5246 67.209 24.5246 66.9573 24.3982C65.447 23.8925 64.9435 21.6171 62.3005 20.2265C62.3005 20.3529 63.0556 19.8473 63.9366 19.8473ZM61.797 21.2378C63.0556 21.9963 63.8108 22.8812 64.4401 23.5133C65.0694 24.2718 65.6987 25.0303 66.5797 25.4095C66.9573 25.5359 67.3348 25.5359 67.5866 25.5359C68.971 25.5359 70.3555 24.7774 70.9848 23.3869L71.6141 22.2491L70.3555 22.1227C70.2296 22.1227 68.5934 21.9963 66.8314 19.9737C66.0762 19.2152 65.0694 18.8359 64.1884 18.8359C62.9298 18.8359 62.0487 19.468 62.0487 19.5944L60.916 20.3529L61.797 21.2378Z" fill="#1A1919"/>
<path fill-rule="evenodd" clip-rule="evenodd" d="M62.4267 32.9945C61.6715 26.9265 57.2665 22.502 52.3579 19.8473C51.8545 19.5945 51.4769 19.3416 51.0994 19.0888C52.6097 19.3416 55.001 19.3416 56.8889 17.6982C56.8889 17.6982 53.9941 19.8473 48.2046 17.9511C49.8408 18.9624 52.9872 20.4794 55.882 23.0077C63.056 29.3284 58.0216 35.3964 58.0216 35.3964C60.5388 32.7416 60.6647 29.8341 60.0354 27.5586C61.4198 29.7077 62.175 32.6152 62.175 35.902C61.9233 40.8322 59.2802 45.0039 56.5113 48.2907C55.1269 49.9341 54.8751 51.8303 54.8751 51.8303C54.8751 51.8303 55.5044 50.0605 57.0147 48.2907C60.0354 44.7511 62.5526 41.085 62.9301 35.902C63.3077 36.7869 64.5663 39.4416 66.4542 40.5794C66.0766 40.5794 63.5594 39.0624 62.4267 32.9945Z" fill="#1A1919"/>
<path fill-rule="evenodd" clip-rule="evenodd" d="M23.5357 56.1282C16.11 56.1282 16.2359 49.681 16.2359 49.681C16.2359 49.681 15.7325 51.5772 13.7187 52.0829C13.467 52.2093 13.2153 52.2093 12.9636 52.2093C12.2084 52.2093 11.705 52.0829 11.705 52.0829C11.705 52.0829 12.7118 49.8074 11.705 46.5206C10.8239 43.8659 10.9498 41.8433 10.9498 41.8433C10.9498 41.8433 9.94293 43.4867 7.5516 43.4867C5.41199 43.4867 4.53098 41.8433 4.53098 41.8433C9.56535 39.6942 9.06191 33.1206 9.06191 33.1206C9.06191 33.1206 8.30676 33.6263 7.04816 33.6263H6.9223C4.1534 33.6263 3.27238 30.7187 3.27238 30.7187C3.77582 30.7187 7.80332 30.5923 10.6981 26.9263C12.586 24.5244 14.2221 22.3753 17.1169 21.6169H17.4945L17.6203 21.2376C17.7462 20.7319 17.3686 20.3527 16.7393 19.847C12.4601 17.0659 15.3549 13.3999 15.3549 13.3999C15.3549 13.3999 16.4876 16.181 19.2565 16.181C19.3824 16.181 19.3824 16.181 19.5082 16.181C19.8858 16.181 20.1375 16.181 20.3893 16.0546L20.8927 15.9282C20.8927 15.9282 20.1375 13.7791 21.8996 11.8829C23.284 10.3659 24.9202 10.1131 25.9271 10.1131C26.4305 10.1131 26.6822 10.2395 26.6822 10.2395C25.8012 11.5036 25.046 13.5263 26.0529 14.7904C26.9339 15.8018 29.3253 15.9282 29.3253 17.5716C29.3253 18.3301 28.696 19.0886 27.5632 19.7206C24.0392 21.8697 20.7668 24.7772 19.3824 28.6961C17.6203 33.4999 19.6341 36.6602 22.5289 38.5565C22.5289 38.5565 21.6478 39.315 20.3893 39.4414C20.1375 39.4414 19.8858 39.4414 19.6341 39.4414C16.8652 39.4414 15.4807 38.1772 15.4807 38.1772C15.4807 38.1772 15.7325 39.947 17.1169 41.5904C18.3755 43.1074 20.1375 43.9923 22.7806 43.9923C22.7806 43.9923 22.9064 45.2565 21.7737 46.2678C21.0185 47.0263 19.3824 47.1527 19.3824 47.1527C19.3824 47.1527 22.6547 47.9112 22.9064 52.5886C23.0323 55.2433 23.6616 56.1282 23.5357 56.1282ZM24.4167 55.6225C24.4167 55.6225 23.7875 54.864 23.6616 52.5886C23.4099 49.9338 22.5289 48.4169 21.522 47.5319C21.7737 47.4055 22.1513 47.1527 22.2771 47.0263C23.6616 45.7621 23.6616 44.2452 23.6616 43.9923V43.2338H22.9064C20.7668 43.2338 19.2565 42.4753 17.8721 41.0848C17.4945 40.7055 17.2428 40.3263 17.1169 40.0735C17.8721 40.3263 18.6272 40.4527 19.6341 40.4527C19.8858 40.4527 20.2634 40.4527 20.3893 40.4527C21.8996 40.3263 22.9064 39.4414 23.0323 39.315L23.7875 38.5565L22.9064 37.9244C20.7668 36.5338 18.3755 33.8791 20.1375 29.2018C21.2703 26.1678 23.7875 23.3867 27.9408 20.7319C29.3253 19.847 30.0804 18.7093 30.0804 17.8244C30.0804 16.3074 28.8218 15.6753 27.9408 15.2961C27.4374 15.0433 27.0598 14.7904 26.8081 14.5376C26.0529 13.7791 26.6822 12.1357 27.4374 11.1244L28.3184 9.98667L26.9339 9.73384C26.9339 9.73384 26.4305 9.60742 26.0529 9.60742C25.046 9.60742 22.9064 9.86025 21.2703 11.6301C19.6341 12.8942 19.5082 14.4112 19.5082 15.4225C19.3824 15.4225 19.2565 15.4225 19.0048 15.4225H18.8789C16.7393 15.4225 15.8583 13.2735 15.7325 13.147L15.229 11.7565L14.348 12.8942C14.348 13.0206 12.9636 14.664 13.3411 16.8131C13.5928 18.2036 14.4739 19.4678 15.9842 20.4791C16.11 20.6055 16.2359 20.7319 16.3618 20.7319C13.467 21.6169 11.8308 23.7659 10.0688 25.915L9.81707 26.2942C7.5516 29.7074 3.77582 29.8338 3.39824 29.8338H2.13965L2.51723 30.9716C2.51723 31.098 3.64996 34.5112 7.04816 34.5112H7.17402C7.5516 34.5112 7.92918 34.3848 8.05504 34.3848C7.92918 36.281 7.29988 39.6942 4.1534 40.9584L3.27238 41.3376L3.77582 42.2225C3.77582 42.3489 4.90855 44.2452 7.5516 44.2452C8.68433 44.2452 9.56535 43.9923 10.1946 43.6131C10.3205 44.3716 10.5722 45.6357 10.9498 46.7735C11.8308 49.5546 11.0757 51.5772 10.9498 51.7036L10.6981 52.5886L11.705 52.8414C11.8308 52.8414 12.4601 53.0942 13.2153 53.0942C13.5928 53.0942 13.9704 53.0942 14.0963 52.9678C14.8514 52.715 15.4807 52.3357 15.9842 52.0829C16.2359 52.9678 16.7393 53.9791 17.6203 54.864C19.0048 56.381 21.1444 57.0131 23.9133 57.0131H25.5495L24.4167 55.6225Z" fill="#1A1919"/>
<path fill-rule="evenodd" clip-rule="evenodd" d="M8.68453 20.7317C9.43969 19.9732 10.069 19.8468 10.8241 19.8468C11.7052 19.8468 12.5862 20.3525 12.5862 20.3525C9.94312 21.743 9.43969 23.8921 7.92937 24.5242C7.67765 24.6506 7.42594 24.6506 7.17422 24.6506C6.16734 24.6506 5.03461 23.8921 4.65703 23.1336C4.53117 23.0072 6.41906 22.8808 8.68453 20.7317ZM7.04836 25.5355C7.42594 25.5355 7.80351 25.5355 8.05523 25.4091C8.93625 25.0298 9.56555 24.3978 10.1948 23.5129C10.8241 22.628 11.5793 21.743 12.8379 21.2374L14.0965 20.4789L12.9637 19.7204C12.9637 19.594 11.9569 18.9619 10.8241 18.9619C9.81726 18.9619 8.81039 19.4676 8.18109 20.0996C6.2932 21.9959 4.65703 22.2487 4.65703 22.2487L3.39844 22.3751L4.02773 23.5129C4.27945 24.6506 5.66391 25.5355 7.04836 25.5355Z" fill="#1A1919"/>
<path fill-rule="evenodd" clip-rule="evenodd" d="M12.8377 35.902C12.7118 32.4888 13.5928 29.7077 14.9773 27.5586C14.2221 29.8341 14.2221 32.7416 16.991 35.3964C16.991 35.3964 11.9567 29.202 19.1306 23.0077C22.0254 20.6058 25.1719 19.2152 26.8081 17.9511C21.0185 19.8473 18.1238 17.6982 18.1238 17.6982C20.0117 19.3416 22.403 19.3416 23.9133 19.0888C23.5357 19.3416 23.1581 19.4681 22.6547 19.8473C17.7462 22.502 13.3411 26.9265 12.586 33.1209C11.4532 39.1888 8.93604 40.7058 8.93604 40.7058C10.9498 39.6945 12.2084 37.0398 12.4601 36.0284C12.8377 41.2114 15.3549 45.0039 18.3755 48.4171C19.8858 50.3133 20.5151 51.9567 20.5151 51.9567C20.5151 51.9567 20.1375 49.9341 18.8789 48.4171C15.7324 45.0039 13.0894 40.8322 12.8377 35.902Z" fill="#1A1919"/>
<path fill-rule="evenodd" clip-rule="evenodd" d="M35.7441 23.6396V24.7774C36.2476 24.2717 37.0027 24.3981 37.0027 24.3981V26.168C37.0027 26.168 37.0027 26.9264 36.6252 27.4321H38.2613C37.8837 27.0529 37.8838 26.168 37.8838 26.168V24.3981C37.8838 24.3981 38.6389 24.2717 39.1423 24.7774V23.6396H35.7441Z" fill="#1A1919"/>
<path fill-rule="evenodd" clip-rule="evenodd" d="M34.8634 16.4337C35.4927 16.9393 35.7445 16.9393 35.7445 17.0657L35.9962 17.1922V16.0544L33.9824 15.1695C33.9824 15.0431 33.9824 15.6752 34.8634 16.4337Z" fill="#1A1919"/>
<path fill-rule="evenodd" clip-rule="evenodd" d="M39.7718 16.4335C40.6528 15.675 40.6528 15.043 40.6528 15.043L38.5132 15.8015V16.9392L38.7649 16.8128C39.0166 16.9392 39.1425 16.9392 39.7718 16.4335Z" fill="#1A1919"/>
<path fill-rule="evenodd" clip-rule="evenodd" d="M37.3804 13.3999L32.4719 11.3773C32.9753 10.366 34.7374 9.48105 37.3804 9.48105C40.0235 9.48105 41.9113 10.2395 42.4148 11.3773L37.3804 13.3999ZM41.0303 19.4678L37.6321 21.2377V14.1584L42.1631 12.6414L41.0303 19.4678ZM43.1699 21.3641L44.6802 22.249L45.0578 22.5018C44.3027 22.7546 43.5475 23.2603 42.9182 23.766C42.9182 23.766 42.9182 23.766 42.7924 23.8924C42.6665 24.0188 42.5406 24.1452 42.4148 24.398C42.4148 24.398 42.4148 24.398 42.2889 24.5244C42.1631 24.6509 42.0372 24.9037 41.9113 25.0301C41.9113 25.0301 41.9113 25.0301 41.9113 25.1565C41.7855 25.4093 41.6596 25.5358 41.5338 25.7886C40.5269 27.6848 38.7649 28.8226 37.2545 28.8226C35.7442 28.8226 33.9822 27.6848 32.9753 25.7886C32.8495 25.5358 32.7236 25.4093 32.5978 25.1565C32.5978 25.1565 32.5978 25.0301 32.4719 25.0301C32.346 24.9037 32.2202 24.6509 32.0943 24.5244C32.0943 24.5244 32.0943 24.398 31.9685 24.398C31.8426 24.2716 31.7167 24.1452 31.5909 23.8924C31.5909 23.8924 31.5909 23.8924 31.465 23.766C30.8357 23.1339 30.3323 22.7546 29.3254 22.5018L29.703 22.249L31.2133 21.3641L32.7236 20.4792L36.877 22.7546L41.0303 20.4792L43.1699 21.3641ZM48.9595 27.6848C48.5819 28.5697 48.3302 29.581 48.3302 30.466V36.7867C47.0716 36.5339 46.8199 35.1433 46.8199 35.1433V34.8905H46.5681C45.9388 34.8905 45.6871 34.5112 45.3095 34.2584C44.6802 33.4999 44.5544 32.615 44.6802 32.4886C44.6802 32.4886 43.9251 33.4999 44.8061 34.6377C45.1837 35.1433 45.5613 35.3961 46.3164 35.3961C46.4423 36.1546 47.0716 37.2924 48.456 37.5452V40.5792H44.6802C42.9182 39.5678 43.6734 37.9244 43.7992 37.798L43.9251 37.4188L43.4217 37.166C41.4079 36.4075 42.0372 34.5112 42.0372 34.5112L42.1631 34.2584L41.9113 34.132C40.2752 33.3735 40.5269 31.4773 40.5269 31.3509C40.0235 31.7301 39.7717 32.4886 40.1493 33.3735C39.8976 33.6263 39.6459 33.8792 39.3942 34.132C37.758 33.6263 37.6321 32.1094 37.6321 32.1094V31.8565L37.3804 31.7301C36.6253 31.4773 36.3735 31.098 36.1218 30.7188C35.8701 30.0867 35.996 29.7075 35.996 29.3282C36.2477 29.3282 36.3735 29.4546 36.6253 29.4546C36.877 29.4546 37.0028 29.4546 37.2545 29.4546C37.5063 29.4546 37.6321 29.4546 37.8838 29.4546C38.8907 29.3282 40.0235 28.8226 41.282 27.6848H48.9595ZM44.3027 54.8641L44.8061 52.715C44.8061 52.5886 44.8061 52.4622 44.932 52.2093C45.0578 52.2093 45.1837 52.3358 45.3095 52.3358C45.4354 52.3358 45.6871 52.3358 45.813 52.3358C46.5681 52.3358 46.8199 51.9565 47.0716 51.5773L47.4492 51.198L47.1974 50.6924C47.1974 50.6924 46.5681 49.8075 46.1906 49.049C46.0647 48.9226 45.9388 48.7961 45.9388 48.6697C45.4354 47.9112 44.8061 46.8999 43.5475 46.8999H43.4217C43.1699 46.8999 43.0441 46.8999 42.7924 47.0263C42.2889 46.7735 42.0372 46.6471 41.5338 46.6471C40.9045 46.6471 40.5269 46.7735 40.2752 46.8999C40.1493 46.8999 40.1493 46.8999 40.0235 47.0263L37.6321 46.7735C37.6321 46.7735 37.5063 46.6471 37.3804 46.5207L38.0097 46.2678C37.8838 44.498 36.1218 43.3603 35.2408 42.981C35.2408 42.7282 35.1149 42.6018 34.9891 42.4754L34.3598 41.9697L33.4788 42.981L33.227 43.2339L29.703 41.8433L31.8426 44.6244L30.9616 45.8886C30.584 46.2678 30.9616 46.6471 30.9616 46.6471L31.8426 47.2792L32.7236 46.8999H32.8495C32.8495 47.0263 32.7236 47.6584 32.7236 47.6584L31.0874 47.2792L29.3254 48.1641C28.4444 48.9226 28.3185 49.9339 28.5703 50.566L28.822 51.0716L29.0737 51.7037L29.703 51.4509C29.4513 52.2094 29.5771 52.8414 29.9547 53.2207L30.3323 53.7263L30.8357 54.3584L31.465 53.7263C31.5909 53.5999 32.2202 52.9678 32.2202 52.5886L32.346 52.2093L32.0943 51.9565L32.4719 51.4509L34.6115 51.9565L35.1149 52.0829L35.3667 51.5773L35.4925 51.3244C35.4925 51.3244 35.4925 51.3244 35.6184 51.3244C35.7442 51.3244 35.7442 51.3244 35.8701 51.3244C36.6253 51.4509 37.3804 51.5773 38.0097 51.5773C38.639 51.5773 39.0166 51.5773 39.52 51.3244C39.52 51.3244 40.6527 52.5886 40.6527 52.715L39.8976 54.8641V54.9905C38.639 55.1169 37.8838 55.3697 37.1287 56.1282C35.996 54.9905 35.1149 54.8641 32.0943 54.8641C28.5703 54.8641 25.9272 52.715 25.9272 49.3018V40.9584H47.9526V49.3018C48.456 52.3358 46.8199 54.232 44.3027 54.8641ZM30.584 50.0603L30.7099 50.3131C30.584 50.566 29.8288 50.9452 29.8288 50.9452L29.5771 50.4395C29.3254 49.9339 29.4513 49.3018 30.0806 48.7961L31.465 48.0377L32.9753 48.4169C32.9753 48.9226 33.227 49.1754 33.227 49.1754L31.7167 48.7961L30.8357 49.5546C30.4581 49.8075 30.4581 49.9339 30.584 50.0603ZM44.051 52.5886L43.5475 55.1169C43.1699 55.1169 42.9182 55.2433 42.6665 55.2433L43.1699 52.8414C43.2958 52.0829 41.4079 51.9565 40.5269 50.566C40.0235 51.0716 39.2683 51.3244 38.3873 51.3244C37.6321 51.3244 36.7511 51.198 36.2477 51.0716C36.1218 51.0716 35.996 51.0716 35.8701 51.0716C35.6184 51.0716 35.2408 51.198 35.1149 51.4509L34.9891 51.7037L32.4719 51.0716L31.7167 52.0829C31.5909 52.3358 31.5909 52.4622 31.7167 52.5886L31.9685 52.8414C31.8426 53.2207 31.2133 53.7263 31.2133 53.7263L30.9616 53.0943C30.584 52.715 30.7099 52.2093 31.0874 51.5773L32.0943 49.8075L34.2339 50.1867L33.9822 49.4282C33.4788 48.4169 34.2339 47.1527 34.3598 46.2678C34.3598 46.5207 34.1081 46.5207 33.8563 46.5207C33.6046 46.5207 33.3529 46.5207 33.227 46.5207C33.1012 46.5207 33.1012 46.5207 33.1012 46.5207L32.4719 46.8999L31.9685 46.3943C31.9685 46.2678 31.8426 46.1414 32.0943 45.8886L33.1012 44.6244L31.8426 43.1075L33.7305 43.9924L34.3598 43.2339C34.4856 43.3603 34.4856 43.866 34.4856 43.866C35.1149 43.866 36.6253 44.7509 36.6253 46.7735C36.6253 46.8999 36.6253 46.8999 36.6253 47.0263C36.6253 47.0263 36.6253 47.0263 36.6253 47.1527C36.7511 47.2792 37.1287 47.7848 37.3804 47.7848L39.8976 48.0377C40.1493 48.0377 40.6528 47.6584 41.4079 47.6584C41.7855 47.6584 42.1631 47.7848 42.6665 48.0377C42.6665 48.0377 42.9182 47.7848 43.2958 47.7848H43.4217C44.5544 47.7848 45.0578 48.7961 45.5613 49.681C46.0647 50.4395 46.5681 51.3244 46.5681 51.3244C46.3164 51.5773 46.0647 51.8301 45.813 51.8301C45.6871 51.8301 45.5613 51.8301 45.4354 51.8301C44.3027 51.5773 44.051 49.1754 43.2958 48.9226H43.1699C42.9182 48.9226 42.7924 49.1754 42.7924 49.1754C43.1699 49.9339 42.9182 50.3131 43.2958 51.0716C43.5475 51.5773 44.0509 51.9565 44.1768 52.0829C44.1768 51.8301 44.051 52.2093 44.051 52.5886ZM41.7855 55.1169C41.4079 55.1169 41.0303 55.1169 40.9045 55.1169L41.6596 52.8414C41.7855 52.4622 41.1562 52.0829 40.9045 51.8301C41.282 52.0829 42.1631 52.5886 42.6665 52.715C42.5406 52.715 41.7855 55.1169 41.7855 55.1169ZM30.8357 34.5112L30.9616 30.5924L31.8426 29.7075L32.4719 30.8452L31.3392 34.5112H30.8357ZM31.5909 35.649C31.7167 36.0282 32.0943 36.1546 32.2202 36.281C32.2202 36.5339 32.2202 37.0395 32.0943 37.4188C32.0943 37.5452 32.0943 37.5452 31.9685 37.6716V37.798C31.7167 37.798 31.2133 37.798 30.7099 37.5452C30.2064 37.2924 29.5771 36.5339 29.703 35.3961C29.9547 35.2697 30.4581 35.0169 30.8357 35.0169C31.0874 35.2697 31.3392 35.3961 31.5909 35.649ZM41.7855 36.9131C41.0303 37.4188 39.3942 38.6829 38.639 39.0622L32.4719 37.9244V37.798C32.5978 37.4188 32.5978 37.0395 32.5978 36.5339L37.758 36.6603L37.8838 36.5339C38.0097 36.4075 39.6459 34.8905 40.401 34.0056C40.6527 34.2584 40.9045 34.5112 41.1562 34.7641C41.282 35.2697 41.282 36.0282 41.7855 36.9131ZM33.3529 27.6848C34.1081 28.4433 34.8632 28.8226 35.4925 29.0754C35.3667 29.4546 35.2408 30.0867 35.6184 30.9716C35.8701 31.6037 36.3735 31.9829 37.1287 32.3622C37.2545 33.1207 37.758 34.2584 39.0166 34.6377C38.3873 35.2697 38.0097 35.649 37.758 35.9018L32.4719 35.7754C32.346 35.649 32.0943 35.5226 32.0943 35.3961C32.0943 35.3961 32.0943 35.3961 32.0943 35.2697L32.8495 35.3961C32.9753 35.3961 33.227 35.2697 33.227 35.1433C33.227 34.8905 33.1012 34.7641 32.9753 34.7641L31.9685 34.6377L33.1012 30.7188L32.0943 28.4433L30.2064 30.2131V34.3848L29.0737 34.132C28.822 34.132 28.6961 34.2584 28.6961 34.3848C28.6961 34.6377 28.822 34.7641 28.9478 34.7641L29.4513 34.8905C29.1995 35.0169 29.0737 35.1433 29.0737 35.1433V35.2697V35.3961C28.822 36.5339 29.4513 37.5452 30.0806 38.1773V38.3037C30.0806 38.5565 30.0806 38.6829 30.2064 38.8094C30.3323 38.9358 30.4581 39.0622 30.7099 39.0622H30.8357C31.2133 39.0622 31.465 38.8093 31.5909 38.5565C31.8426 38.5565 32.0943 38.5565 32.346 38.5565H32.4719L39.1424 39.8207L39.2683 39.6943C39.8976 39.315 41.7855 37.798 42.5406 37.4188C42.7924 37.5452 42.9182 37.798 43.2958 37.9244C43.0441 38.6829 43.0441 39.8207 43.9251 40.7056H26.3048V30.7188C26.3048 29.8339 26.0531 28.6961 25.6755 27.9377L33.3529 27.6848ZM32.4719 12.6414L37.0028 14.1584V21.2377L33.6046 19.4678L32.4719 12.6414ZM43.4217 11.7565C43.4217 9.98671 40.5269 8.46973 37.2545 8.46973C33.9822 8.46973 31.0874 9.98671 31.0874 11.7565L31.2133 12.2622L32.4719 19.5943L31.2133 20.3527L27.8151 22.3754C27.8151 22.3754 27.0599 22.7546 26.8082 23.0075C25.5496 23.8924 25.2979 25.1565 26.0531 25.6622C26.3048 24.6509 27.0599 23.5131 28.5703 23.5131C29.703 23.5131 30.584 24.1452 31.2133 24.9037C31.465 25.1565 31.5909 25.4093 31.7167 25.6622C31.9685 26.0414 32.0943 26.2943 32.346 26.4207H23.7876C24.4169 27.6848 25.0462 29.0754 25.0462 30.466V49.5546C25.0462 54.232 28.5703 56.381 32.346 56.381C35.2408 56.381 35.7442 56.2546 37.3804 57.898C39.0166 56.2546 39.3942 56.381 42.4148 56.381C46.1906 56.381 49.7146 54.232 49.7146 49.5546V30.466C49.7146 28.949 50.3439 27.6848 50.9732 26.4207H42.4148C42.6665 26.1678 42.7924 25.7886 43.0441 25.6622C43.1699 25.4093 43.4217 25.1565 43.5475 24.9037C44.3027 24.1452 45.0578 23.5131 46.1906 23.5131C47.7009 23.5131 48.456 24.5244 48.7077 25.6622C49.4629 25.0301 49.2112 23.766 47.9526 23.0075C47.575 22.7546 46.9457 22.3754 46.9457 22.3754L43.5475 20.3527L42.2889 19.5943L43.5475 12.2622L43.4217 11.7565Z" fill="#1A1919"/>
</svg>
