<svg width="35" height="35" viewBox="0 0 35 35" fill="none" xmlns="http://www.w3.org/2000/svg">
<rect x="0.5" y="0.5" width="34" height="34" rx="7.5" stroke="white"/>
<path d="M9 12.1638C9 11.7039 9.32619 11.3311 9.72857 11.3311L12.2448 11.3306C12.7447 11.3161 13.1858 10.9528 13.3559 10.4152C13.3604 10.4011 13.3655 10.3837 13.384 10.3204L13.4924 9.94859C13.5587 9.7206 13.6165 9.52198 13.6974 9.34443C14.017 8.64305 14.6082 8.15599 15.2914 8.0313C15.4643 7.99973 15.6475 7.99987 15.8577 8.00002H19.1425C19.3527 7.99987 19.5358 7.99973 19.7088 8.0313C20.392 8.15599 20.9832 8.64305 21.3027 9.34443C21.3836 9.52198 21.4415 9.7206 21.5077 9.94859L21.6162 10.3204C21.6347 10.3837 21.6398 10.4011 21.6442 10.4152C21.8144 10.9528 22.3429 11.3166 22.8428 11.3311H25.2715C25.6738 11.3311 26 11.7039 26 12.1638C26 12.6237 25.6738 12.9966 25.2715 12.9966H9.72857C9.32619 12.9966 9 12.6237 9 12.1638Z" fill="white"/>
<path d="M17.3648 27.9859H18.1079C20.665 27.9859 21.9435 27.9859 22.7748 27.1233C23.6061 26.2607 23.6912 24.8458 23.8613 22.0159L24.1064 17.9381C24.1987 16.4026 24.2448 15.6348 23.8278 15.1483C23.4107 14.6618 22.7065 14.6618 21.298 14.6618H14.1747C12.7662 14.6618 12.0619 14.6618 11.6449 15.1483C11.2279 15.6348 11.274 16.4026 11.3663 17.9381L11.6114 22.0159C11.7815 24.8458 11.8665 26.2607 12.6978 27.1233C13.5291 27.9859 14.8076 27.9859 17.3648 27.9859Z" fill="white"/>
</svg>
