<svg width="25" height="14" viewBox="0 0 25 14" fill="none" xmlns="http://www.w3.org/2000/svg">
<path d="M0.449062 0.713474H4.8202C4.90319 0.713224 4.98431 0.738319 5.05298 0.785478C5.12165 0.832638 5.17466 0.899668 5.20509 0.977807C6.16268 3.12566 7.40177 5.13316 8.88894 6.94617C8.91558 6.99235 8.95371 7.03067 8.99953 7.0573C9.04535 7.08393 9.09727 7.09794 9.15011 7.09794C9.20295 7.09794 9.25487 7.08393 9.30069 7.0573C9.34651 7.03067 9.38464 6.99235 9.41128 6.94617C9.87863 5.80536 10.7171 3.06465 9.08138 1.10302C9.04962 1.06192 9.02741 1.01412 9.01638 0.963148C9.00535 0.912181 9.00579 0.859355 9.01767 0.808584C9.02956 0.757814 9.05257 0.710399 9.08501 0.669853C9.11746 0.629306 9.1585 0.596666 9.20509 0.574351C9.9636 0.210773 10.79 0.0152523 11.6292 0.00085718C12.4683 -0.0135379 13.3008 0.153524 14.0711 0.490877C14.2329 0.564863 14.3706 0.683974 14.4679 0.834268C14.5653 0.984562 14.6184 1.15982 14.6209 1.33953L14.992 6.94617C14.9912 7.00555 15.0033 7.06439 15.0274 7.1185C15.0516 7.1726 15.0873 7.22064 15.1319 7.25918C15.1766 7.29772 15.2291 7.32581 15.2857 7.34144C15.3423 7.35707 15.4016 7.35987 15.4594 7.34962C17.2738 6.94617 18.3598 4.16371 19.3907 1.38126C19.4511 1.20531 19.5644 1.05296 19.7149 0.945642C19.8653 0.838327 20.0451 0.781455 20.2292 0.783035H24.2292C24.3071 0.782095 24.3843 0.798355 24.4553 0.830683C24.5264 0.863011 24.5896 0.910631 24.6407 0.970224C24.6917 1.02982 24.7293 1.09995 24.7508 1.17574C24.7723 1.25154 24.7773 1.33117 24.7653 1.40909C24.0487 3.63084 22.8619 5.66764 21.2876 7.37745C21.1134 7.5935 21.0183 7.86378 21.0183 8.14262C21.0183 8.42146 21.1134 8.69175 21.2876 8.9078L24.889 13.1649C24.9467 13.2338 24.9838 13.318 24.9958 13.4076C25.0078 13.4971 24.9941 13.5883 24.9565 13.6702C24.9189 13.7522 24.8589 13.8215 24.7836 13.87C24.7083 13.9186 24.6209 13.9442 24.5316 13.944H19.9955C19.8103 13.9433 19.6272 13.9048 19.4572 13.8306C19.2871 13.7565 19.1336 13.6484 19.0058 13.5128L15.8443 10.8416C15.8043 10.7969 15.7556 10.7611 15.7011 10.7366C15.6466 10.7121 15.5877 10.6995 15.5281 10.6995C15.4685 10.6995 15.4096 10.7121 15.3552 10.7366C15.3007 10.7611 15.2519 10.7969 15.212 10.8416C14.8271 11.3285 14.8546 11.9268 14.6621 13.2762C14.632 13.4814 14.5286 13.6683 14.3716 13.8016C14.2146 13.9349 14.0148 14.0053 13.8099 13.9997H10.7034C10.262 14.0057 9.82497 13.9105 9.42503 13.7214C7.65183 12.8728 2.77209 9.83992 0.0366904 1.35344C0.00726623 1.28396 -0.00475477 1.20821 0.00169475 1.13291C0.00814428 1.0576 0.0328649 0.985074 0.0736616 0.921761C0.114458 0.858448 0.170069 0.80631 0.235556 0.769975C0.301044 0.73364 0.374383 0.714232 0.449062 0.713474Z" fill="#FFFFFC"/>
</svg>
