<svg width="23" height="17" viewBox="0 0 23 17" fill="none" xmlns="http://www.w3.org/2000/svg">
<path d="M22.5199 2.63141C22.3874 2.12192 22.129 1.65745 21.7705 1.28421C21.412 0.910977 20.9659 0.641997 20.4766 0.504044C17.498 0.134159 14.4995 -0.0324728 11.5 0.00521451C8.50063 -0.0324728 5.50206 0.134159 2.52354 0.504044C2.03418 0.641997 1.58806 0.910977 1.22957 1.28421C0.871082 1.65745 0.612729 2.12192 0.480226 2.63141C0.145398 4.56781 -0.0150066 6.53254 0.00110287 8.5C-0.0142704 10.4674 0.146128 12.4321 0.480226 14.3686C0.612729 14.8781 0.871082 15.3426 1.22957 15.7158C1.58806 16.089 2.03418 16.358 2.52354 16.496C5.50206 16.8658 8.50063 17.0325 11.5 16.9948C14.4995 17.0325 17.498 16.8658 20.4766 16.496C20.9762 16.3505 21.4293 16.0683 21.7887 15.6786C22.148 15.289 22.4005 14.8062 22.5199 14.2806C22.854 12.3441 23.0144 10.3794 22.999 8.41197C23.0099 6.4739 22.8495 4.53889 22.5199 2.63141ZM9.14671 11.9918V4.87614L15.1639 8.41197L9.14671 11.9918Z" fill="#FFFFFC"/>
</svg>
